<svg width="96" height="67" viewBox="0 0 96 67" fill="none" xmlns="http://www.w3.org/2000/svg">
<path fill-rule="evenodd" clip-rule="evenodd" d="M79.6178 57.8766C80.6908 57.2131 81.7147 56.4727 82.6808 55.6615C83.6661 54.8342 84.5913 53.9334 85.4472 52.9657L71.5826 50.7385C69.0628 51.6897 66.273 52.013 63.4155 51.554C54.6908 50.1525 48.7541 41.9437 50.1556 33.2189C51.5571 24.4942 59.766 18.5576 68.4907 19.959C77.2154 21.3605 83.1521 29.5694 81.7506 38.2941C81.7092 38.5517 81.662 38.8068 81.609 39.0593L86.5822 51.59C89.1307 48.2757 90.9144 44.2979 91.624 39.8801C93.9014 25.7025 84.2544 12.363 70.0767 10.0856C55.899 7.80822 42.5596 17.4553 40.2822 31.6329C38.0048 45.8106 47.6519 59.1501 61.8295 61.4274C68.2467 62.4583 74.4922 61.0461 79.6178 57.8766Z" fill="#738699"/>
<path fill-rule="evenodd" clip-rule="evenodd" d="M16.6754 52.8766C15.6025 52.2131 14.5786 51.4727 13.6125 50.6615C12.6272 49.8342 11.702 48.9334 10.8461 47.9657L24.7107 45.7385C27.2305 46.6897 30.0202 47.013 32.8777 46.554C41.6025 45.1525 47.5391 36.9437 46.1376 28.2189C44.7362 19.4942 36.5273 13.5576 27.8026 14.959C19.0778 16.3605 13.1412 24.5694 14.5427 33.2941C14.584 33.5517 14.6313 33.8068 14.6842 34.0593L9.71101 46.59C7.16257 43.2757 5.37887 39.2979 4.66923 34.8801C2.39184 20.7025 12.0389 7.36301 26.2166 5.08561C40.3942 2.80822 53.7337 12.4553 56.0111 26.6329C58.2885 40.8106 48.6414 54.1501 34.4637 56.4274C28.0466 57.4583 21.8011 56.0461 16.6754 52.8766Z" fill="#738699"/>
</svg>
